<mxfile host="app.diagrams.net" modified="2023-08-30T14:03:58.228Z" agent="Mozilla/5.0 (Windows NT 10.0; Win64; x64) AppleWebKit/537.36 (KHTML, like Gecko) Chrome/116.0.0.0 Safari/537.36" etag="Ck_ke5zLKldI9oMA0UZ1" version="21.6.6" type="github">
  <diagram name="Page-1" id="CXxN-VscfFuJF_g8qBtk">
    <mxGraphModel dx="1199" dy="1731" grid="1" gridSize="10" guides="1" tooltips="1" connect="1" arrows="1" fold="1" page="1" pageScale="1" pageWidth="850" pageHeight="1100" math="0" shadow="0">
      <root>
        <mxCell id="0" />
        <mxCell id="1" parent="0" />
        <mxCell id="dFu_xdk_dcW28TbO-wKH-2" value="Table" style="shape=table;startSize=30;container=1;collapsible=1;childLayout=tableLayout;fixedRows=1;rowLines=0;fontStyle=1;align=center;resizeLast=1;html=1;" vertex="1" parent="1">
          <mxGeometry x="60" y="-350" width="180" height="150" as="geometry" />
        </mxCell>
        <mxCell id="dFu_xdk_dcW28TbO-wKH-3" value="" style="shape=tableRow;horizontal=0;startSize=0;swimlaneHead=0;swimlaneBody=0;fillColor=none;collapsible=0;dropTarget=0;points=[[0,0.5],[1,0.5]];portConstraint=eastwest;top=0;left=0;right=0;bottom=1;" vertex="1" parent="dFu_xdk_dcW28TbO-wKH-2">
          <mxGeometry y="30" width="180" height="30" as="geometry" />
        </mxCell>
        <mxCell id="dFu_xdk_dcW28TbO-wKH-4" value="id" style="shape=partialRectangle;connectable=0;fillColor=none;top=0;left=0;bottom=0;right=0;fontStyle=1;overflow=hidden;whiteSpace=wrap;html=1;" vertex="1" parent="dFu_xdk_dcW28TbO-wKH-3">
          <mxGeometry width="30" height="30" as="geometry">
            <mxRectangle width="30" height="30" as="alternateBounds" />
          </mxGeometry>
        </mxCell>
        <mxCell id="dFu_xdk_dcW28TbO-wKH-5" value="text" style="shape=partialRectangle;connectable=0;fillColor=none;top=0;left=0;bottom=0;right=0;align=left;spacingLeft=6;fontStyle=5;overflow=hidden;whiteSpace=wrap;html=1;" vertex="1" parent="dFu_xdk_dcW28TbO-wKH-3">
          <mxGeometry x="30" width="150" height="30" as="geometry">
            <mxRectangle width="150" height="30" as="alternateBounds" />
          </mxGeometry>
        </mxCell>
        <mxCell id="dFu_xdk_dcW28TbO-wKH-6" value="" style="shape=tableRow;horizontal=0;startSize=0;swimlaneHead=0;swimlaneBody=0;fillColor=none;collapsible=0;dropTarget=0;points=[[0,0.5],[1,0.5]];portConstraint=eastwest;top=0;left=0;right=0;bottom=0;" vertex="1" parent="dFu_xdk_dcW28TbO-wKH-2">
          <mxGeometry y="60" width="180" height="30" as="geometry" />
        </mxCell>
        <mxCell id="dFu_xdk_dcW28TbO-wKH-7" value="" style="shape=partialRectangle;connectable=0;fillColor=none;top=0;left=0;bottom=0;right=0;editable=1;overflow=hidden;whiteSpace=wrap;html=1;" vertex="1" parent="dFu_xdk_dcW28TbO-wKH-6">
          <mxGeometry width="30" height="30" as="geometry">
            <mxRectangle width="30" height="30" as="alternateBounds" />
          </mxGeometry>
        </mxCell>
        <mxCell id="dFu_xdk_dcW28TbO-wKH-8" value="Row 1" style="shape=partialRectangle;connectable=0;fillColor=none;top=0;left=0;bottom=0;right=0;align=left;spacingLeft=6;overflow=hidden;whiteSpace=wrap;html=1;" vertex="1" parent="dFu_xdk_dcW28TbO-wKH-6">
          <mxGeometry x="30" width="150" height="30" as="geometry">
            <mxRectangle width="150" height="30" as="alternateBounds" />
          </mxGeometry>
        </mxCell>
        <mxCell id="dFu_xdk_dcW28TbO-wKH-9" value="" style="shape=tableRow;horizontal=0;startSize=0;swimlaneHead=0;swimlaneBody=0;fillColor=none;collapsible=0;dropTarget=0;points=[[0,0.5],[1,0.5]];portConstraint=eastwest;top=0;left=0;right=0;bottom=0;" vertex="1" parent="dFu_xdk_dcW28TbO-wKH-2">
          <mxGeometry y="90" width="180" height="30" as="geometry" />
        </mxCell>
        <mxCell id="dFu_xdk_dcW28TbO-wKH-10" value="" style="shape=partialRectangle;connectable=0;fillColor=none;top=0;left=0;bottom=0;right=0;editable=1;overflow=hidden;whiteSpace=wrap;html=1;" vertex="1" parent="dFu_xdk_dcW28TbO-wKH-9">
          <mxGeometry width="30" height="30" as="geometry">
            <mxRectangle width="30" height="30" as="alternateBounds" />
          </mxGeometry>
        </mxCell>
        <mxCell id="dFu_xdk_dcW28TbO-wKH-11" value="Row 2" style="shape=partialRectangle;connectable=0;fillColor=none;top=0;left=0;bottom=0;right=0;align=left;spacingLeft=6;overflow=hidden;whiteSpace=wrap;html=1;" vertex="1" parent="dFu_xdk_dcW28TbO-wKH-9">
          <mxGeometry x="30" width="150" height="30" as="geometry">
            <mxRectangle width="150" height="30" as="alternateBounds" />
          </mxGeometry>
        </mxCell>
        <mxCell id="dFu_xdk_dcW28TbO-wKH-12" value="" style="shape=tableRow;horizontal=0;startSize=0;swimlaneHead=0;swimlaneBody=0;fillColor=none;collapsible=0;dropTarget=0;points=[[0,0.5],[1,0.5]];portConstraint=eastwest;top=0;left=0;right=0;bottom=0;" vertex="1" parent="dFu_xdk_dcW28TbO-wKH-2">
          <mxGeometry y="120" width="180" height="30" as="geometry" />
        </mxCell>
        <mxCell id="dFu_xdk_dcW28TbO-wKH-13" value="" style="shape=partialRectangle;connectable=0;fillColor=none;top=0;left=0;bottom=0;right=0;editable=1;overflow=hidden;whiteSpace=wrap;html=1;" vertex="1" parent="dFu_xdk_dcW28TbO-wKH-12">
          <mxGeometry width="30" height="30" as="geometry">
            <mxRectangle width="30" height="30" as="alternateBounds" />
          </mxGeometry>
        </mxCell>
        <mxCell id="dFu_xdk_dcW28TbO-wKH-14" value="Row 3" style="shape=partialRectangle;connectable=0;fillColor=none;top=0;left=0;bottom=0;right=0;align=left;spacingLeft=6;overflow=hidden;whiteSpace=wrap;html=1;" vertex="1" parent="dFu_xdk_dcW28TbO-wKH-12">
          <mxGeometry x="30" width="150" height="30" as="geometry">
            <mxRectangle width="150" height="30" as="alternateBounds" />
          </mxGeometry>
        </mxCell>
        <mxCell id="dFu_xdk_dcW28TbO-wKH-19" style="edgeStyle=orthogonalEdgeStyle;rounded=0;orthogonalLoop=1;jettySize=auto;html=1;entryX=0;entryY=0;entryDx=0;entryDy=0;" edge="1" parent="1" source="dFu_xdk_dcW28TbO-wKH-15" target="dFu_xdk_dcW28TbO-wKH-18">
          <mxGeometry relative="1" as="geometry" />
        </mxCell>
        <mxCell id="dFu_xdk_dcW28TbO-wKH-15" value="Info" style="rounded=0;whiteSpace=wrap;html=1;sketch=1;curveFitting=1;jiggle=2;" vertex="1" parent="1">
          <mxGeometry x="60" y="-590" width="120" height="60" as="geometry" />
        </mxCell>
        <mxCell id="dFu_xdk_dcW28TbO-wKH-20" style="edgeStyle=orthogonalEdgeStyle;rounded=0;orthogonalLoop=1;jettySize=auto;html=1;exitX=1;exitY=0.5;exitDx=0;exitDy=0;entryX=0;entryY=0.5;entryDx=0;entryDy=0;" edge="1" parent="1" source="dFu_xdk_dcW28TbO-wKH-16" target="dFu_xdk_dcW28TbO-wKH-18">
          <mxGeometry relative="1" as="geometry" />
        </mxCell>
        <mxCell id="dFu_xdk_dcW28TbO-wKH-16" value="Task" style="rounded=0;whiteSpace=wrap;html=1;sketch=1;curveFitting=1;jiggle=2;" vertex="1" parent="1">
          <mxGeometry x="60" y="-510" width="120" height="60" as="geometry" />
        </mxCell>
        <mxCell id="dFu_xdk_dcW28TbO-wKH-21" style="edgeStyle=orthogonalEdgeStyle;rounded=0;orthogonalLoop=1;jettySize=auto;html=1;exitX=1;exitY=0.5;exitDx=0;exitDy=0;entryX=0;entryY=1;entryDx=0;entryDy=0;" edge="1" parent="1" source="dFu_xdk_dcW28TbO-wKH-17" target="dFu_xdk_dcW28TbO-wKH-18">
          <mxGeometry relative="1" as="geometry" />
        </mxCell>
        <mxCell id="dFu_xdk_dcW28TbO-wKH-17" value="output columns" style="rounded=0;whiteSpace=wrap;html=1;glass=0;sketch=1;curveFitting=1;jiggle=2;" vertex="1" parent="1">
          <mxGeometry x="60" y="-430" width="120" height="60" as="geometry" />
        </mxCell>
        <mxCell id="dFu_xdk_dcW28TbO-wKH-28" style="edgeStyle=orthogonalEdgeStyle;rounded=0;orthogonalLoop=1;jettySize=auto;html=1;exitX=1;exitY=0.5;exitDx=0;exitDy=0;" edge="1" parent="1" source="dFu_xdk_dcW28TbO-wKH-18" target="dFu_xdk_dcW28TbO-wKH-25">
          <mxGeometry relative="1" as="geometry">
            <mxPoint x="400" y="-480" as="sourcePoint" />
          </mxGeometry>
        </mxCell>
        <mxCell id="dFu_xdk_dcW28TbO-wKH-18" value="Prompt" style="rounded=0;whiteSpace=wrap;html=1;sketch=1;curveFitting=1;jiggle=2;" vertex="1" parent="1">
          <mxGeometry x="260" y="-510" width="120" height="60" as="geometry" />
        </mxCell>
        <mxCell id="dFu_xdk_dcW28TbO-wKH-38" style="edgeStyle=orthogonalEdgeStyle;rounded=0;orthogonalLoop=1;jettySize=auto;html=1;exitX=1;exitY=0.5;exitDx=0;exitDy=0;entryX=0;entryY=0.5;entryDx=0;entryDy=0;" edge="1" parent="1" source="dFu_xdk_dcW28TbO-wKH-23" target="dFu_xdk_dcW28TbO-wKH-37">
          <mxGeometry relative="1" as="geometry" />
        </mxCell>
        <mxCell id="dFu_xdk_dcW28TbO-wKH-23" value="LLM function" style="rounded=1;whiteSpace=wrap;html=1;fillColor=#f8cecc;strokeColor=#b85450;" vertex="1" parent="1">
          <mxGeometry x="600" y="-305" width="120" height="60" as="geometry" />
        </mxCell>
        <mxCell id="dFu_xdk_dcW28TbO-wKH-29" style="edgeStyle=orthogonalEdgeStyle;rounded=0;orthogonalLoop=1;jettySize=auto;html=1;exitX=1;exitY=0.5;exitDx=0;exitDy=0;entryX=0;entryY=0.5;entryDx=0;entryDy=0;" edge="1" parent="1" source="dFu_xdk_dcW28TbO-wKH-25" target="dFu_xdk_dcW28TbO-wKH-23">
          <mxGeometry relative="1" as="geometry" />
        </mxCell>
        <mxCell id="dFu_xdk_dcW28TbO-wKH-25" value="final prompt" style="rounded=0;whiteSpace=wrap;html=1;sketch=1;curveFitting=1;jiggle=2;" vertex="1" parent="1">
          <mxGeometry x="420" y="-305" width="120" height="60" as="geometry" />
        </mxCell>
        <mxCell id="dFu_xdk_dcW28TbO-wKH-56" value="" style="edgeStyle=orthogonalEdgeStyle;rounded=0;orthogonalLoop=1;jettySize=auto;html=1;" edge="1" parent="1" source="dFu_xdk_dcW28TbO-wKH-37" target="dFu_xdk_dcW28TbO-wKH-53">
          <mxGeometry relative="1" as="geometry" />
        </mxCell>
        <mxCell id="dFu_xdk_dcW28TbO-wKH-37" value="processing response" style="rounded=1;whiteSpace=wrap;html=1;" vertex="1" parent="1">
          <mxGeometry x="770" y="-305" width="120" height="60" as="geometry" />
        </mxCell>
        <mxCell id="dFu_xdk_dcW28TbO-wKH-44" style="edgeStyle=orthogonalEdgeStyle;rounded=0;orthogonalLoop=1;jettySize=auto;html=1;exitX=0;exitY=0.5;exitDx=0;exitDy=0;entryX=0.5;entryY=1;entryDx=0;entryDy=0;" edge="1" parent="1" source="dFu_xdk_dcW28TbO-wKH-45" target="dFu_xdk_dcW28TbO-wKH-62">
          <mxGeometry relative="1" as="geometry" />
        </mxCell>
        <mxCell id="dFu_xdk_dcW28TbO-wKH-48" value="Yes" style="edgeLabel;html=1;align=center;verticalAlign=middle;resizable=0;points=[];" vertex="1" connectable="0" parent="dFu_xdk_dcW28TbO-wKH-44">
          <mxGeometry x="-0.7482" y="-2" relative="1" as="geometry">
            <mxPoint as="offset" />
          </mxGeometry>
        </mxCell>
        <mxCell id="dFu_xdk_dcW28TbO-wKH-51" style="edgeStyle=orthogonalEdgeStyle;rounded=0;orthogonalLoop=1;jettySize=auto;html=1;exitX=0.5;exitY=1;exitDx=0;exitDy=0;entryX=0.5;entryY=1;entryDx=0;entryDy=0;" edge="1" parent="1" source="dFu_xdk_dcW28TbO-wKH-45" target="dFu_xdk_dcW28TbO-wKH-49">
          <mxGeometry relative="1" as="geometry" />
        </mxCell>
        <mxCell id="dFu_xdk_dcW28TbO-wKH-52" value="No" style="edgeLabel;html=1;align=center;verticalAlign=middle;resizable=0;points=[];" vertex="1" connectable="0" parent="dFu_xdk_dcW28TbO-wKH-51">
          <mxGeometry x="-0.9693" relative="1" as="geometry">
            <mxPoint as="offset" />
          </mxGeometry>
        </mxCell>
        <mxCell id="dFu_xdk_dcW28TbO-wKH-45" value="Is there any data left?" style="rhombus;whiteSpace=wrap;html=1;" vertex="1" parent="1">
          <mxGeometry x="650" y="-210" width="150" height="120" as="geometry" />
        </mxCell>
        <mxCell id="dFu_xdk_dcW28TbO-wKH-49" value="Output DataFrame" style="shape=internalStorage;whiteSpace=wrap;html=1;backgroundOutline=1;" vertex="1" parent="1">
          <mxGeometry x="960" y="-240" width="80" height="80" as="geometry" />
        </mxCell>
        <mxCell id="dFu_xdk_dcW28TbO-wKH-57" style="edgeStyle=orthogonalEdgeStyle;rounded=0;orthogonalLoop=1;jettySize=auto;html=1;exitX=1;exitY=0.5;exitDx=0;exitDy=0;entryX=1;entryY=0.5;entryDx=0;entryDy=0;" edge="1" parent="1" source="dFu_xdk_dcW28TbO-wKH-53" target="dFu_xdk_dcW28TbO-wKH-45">
          <mxGeometry relative="1" as="geometry" />
        </mxCell>
        <mxCell id="dFu_xdk_dcW28TbO-wKH-58" value="Yes" style="edgeLabel;html=1;align=center;verticalAlign=middle;resizable=0;points=[];" vertex="1" connectable="0" parent="dFu_xdk_dcW28TbO-wKH-57">
          <mxGeometry x="-0.3432" y="-3" relative="1" as="geometry">
            <mxPoint as="offset" />
          </mxGeometry>
        </mxCell>
        <mxCell id="dFu_xdk_dcW28TbO-wKH-59" style="edgeStyle=orthogonalEdgeStyle;rounded=0;orthogonalLoop=1;jettySize=auto;html=1;exitX=0;exitY=0.5;exitDx=0;exitDy=0;entryX=0.5;entryY=0;entryDx=0;entryDy=0;" edge="1" parent="1" source="dFu_xdk_dcW28TbO-wKH-53" target="dFu_xdk_dcW28TbO-wKH-23">
          <mxGeometry relative="1" as="geometry" />
        </mxCell>
        <mxCell id="dFu_xdk_dcW28TbO-wKH-60" value="No" style="edgeLabel;html=1;align=center;verticalAlign=middle;resizable=0;points=[];" vertex="1" connectable="0" parent="dFu_xdk_dcW28TbO-wKH-59">
          <mxGeometry x="-0.5532" y="1" relative="1" as="geometry">
            <mxPoint as="offset" />
          </mxGeometry>
        </mxCell>
        <mxCell id="dFu_xdk_dcW28TbO-wKH-53" value="Can the response&lt;br&gt;&amp;nbsp;be converted &lt;br&gt;to a dataframe?" style="rhombus;whiteSpace=wrap;html=1;" vertex="1" parent="1">
          <mxGeometry x="760" y="-490" width="140" height="140" as="geometry" />
        </mxCell>
        <mxCell id="dFu_xdk_dcW28TbO-wKH-63" value="" style="edgeStyle=orthogonalEdgeStyle;rounded=0;orthogonalLoop=1;jettySize=auto;html=1;exitX=1;exitY=0.5;exitDx=0;exitDy=0;entryX=0;entryY=0.5;entryDx=0;entryDy=0;" edge="1" parent="1" source="dFu_xdk_dcW28TbO-wKH-6" target="dFu_xdk_dcW28TbO-wKH-62">
          <mxGeometry relative="1" as="geometry">
            <mxPoint x="240" y="-275" as="sourcePoint" />
            <mxPoint x="400" y="-275" as="targetPoint" />
          </mxGeometry>
        </mxCell>
        <mxCell id="dFu_xdk_dcW28TbO-wKH-64" style="edgeStyle=orthogonalEdgeStyle;rounded=0;orthogonalLoop=1;jettySize=auto;html=1;exitX=1;exitY=0.5;exitDx=0;exitDy=0;entryX=0;entryY=0.5;entryDx=0;entryDy=0;" edge="1" parent="1" source="dFu_xdk_dcW28TbO-wKH-62" target="dFu_xdk_dcW28TbO-wKH-25">
          <mxGeometry relative="1" as="geometry" />
        </mxCell>
        <mxCell id="dFu_xdk_dcW28TbO-wKH-62" value="Batching data" style="rounded=1;whiteSpace=wrap;html=1;" vertex="1" parent="1">
          <mxGeometry x="270" y="-305" width="120" height="60" as="geometry" />
        </mxCell>
      </root>
    </mxGraphModel>
  </diagram>
</mxfile>
